<?xml version="1.0" encoding="utf-8"?>
<!-- Generator: Adobe Illustrator 24.1.0, SVG Export Plug-In . SVG Version: 6.00 Build 0)  -->
<svg version="1.1" id="Layer_1" xmlns="http://www.w3.org/2000/svg" xmlns:xlink="http://www.w3.org/1999/xlink" x="0px" y="0px"
	 viewBox="0 0 721 115" style="enable-background:new 0 0 721 115;" xml:space="preserve">
<style type="text/css">
	.st0{fill-rule:evenodd;clip-rule:evenodd;fill:#FFFFFE;}
	.st1{fill-rule:evenodd;clip-rule:evenodd;fill:#FF3333;}
	.st2{fill-rule:evenodd;clip-rule:evenodd;fill:#FFFFFF;}
	.st3{fill-rule:evenodd;clip-rule:evenodd;fill:#AD8B5B;}
</style>
<desc>Created with Sketch.</desc>
<g id="UI-Kit">
	<g id="Logo" transform="translate(-200.000000, -597.000000)">
		<g id="logo_x2F_Treasures_x2F_coloured_x5F_100h" transform="translate(200.000000, 597.000000)">
			<g id="logo_x2F_Treasures_x2F_coloured">
				<g id="Group-13-Copy" transform="translate(0.000000, 3.000000)">
					<g id="Group">
						<polygon id="Fill-1" class="st0" points="16.5,83.2 82.6,83.2 82.6,17.1 16.5,17.1 						"/>
						<path id="Logomark" class="st1" d="M80.4,81.1L56.4,61c0,0-3.2-3.2-6.9-3.2c-3.7,0-6.9,3.2-6.9,3.2l-24,20.1L18.5,81l20.1-24
							c0,0,3.2-3.2,3.2-6.9c0-3.7-3.2-6.9-3.2-6.9l-20.1-24l0.1-0.1l24,20.1c0,0,3.2,3.2,6.9,3.2c3.6,0,6.9-3.2,6.9-3.2l24-20.1
							l0.1,0.1l-20.2,24c0,0-3.1,3.2-3.1,6.9c0,3.7,3.1,6.9,3.1,6.9L80.4,81.1L80.4,81.1z M91.6,50.1L91.6,50.1
							c0-6.5,0.3-12.3,5.1-22.6c1.4-3,4.5-7.3-0.1-12.4c-3.7-3.7-7.9-3.1-10.7-1.4c1.6-2.8,2.2-7-1.5-10.7
							c-5.1-4.5-9.4-1.5-12.4-0.1C61.8,7.8,56,8,49.5,8C43,8,37.2,7.8,26.9,2.9C24,1.5,19.6-1.6,14.5,3c-3.7,3.7-3.1,7.9-1.4,10.7
							c-2.8-1.6-7-2.2-10.7,1.4c-4.5,5.1-1.4,9.4-0.1,12.4c4.9,10.2,5.1,16.1,5.1,22.6c0,6.5-0.3,12.4-5.1,22.6
							c-1.4,3-4.5,7.3,0.1,12.4c3.7,3.7,7.9,3.1,10.7,1.5c-1.6,2.8-2.2,7,1.4,10.7c5,4.6,9.4,1.5,12.4,0.1c10.2-4.8,16-5.1,22.6-5.1
							c6.5,0,12.3,0.3,22.6,5.1c3,1.4,7.3,4.5,12.4-0.1c3.7-3.7,3.1-7.9,1.5-10.7c2.8,1.6,7,2.2,10.7-1.5c4.5-5.1,1.5-9.4,0.1-12.4
							C91.9,62.5,91.6,56.6,91.6,50.1L91.6,50.1z"/>
					</g>
					<path id="DBS" class="st2" d="M163.4,88.5c8.2-3,18.4-17,16.7-39.1c-1.6-21.4-9.8-38.2-31.5-39.8c0,0-4.1-0.3-7.6-0.3
						c-3.7,0-4.5-0.2-4.8,3.8c-0.5,7.4-0.6,65-0.1,73.3c0.1,1.1,0.2,3.9,4.9,4.4C149.8,91.6,157,90.9,163.4,88.5z M155,5.9
						c18.4-0.1,42.6,12.5,42.5,44c-0.1,27.4-19.9,44.3-38.1,44.3l-46.4,0l0.1-1c2.6-0.5,5.5-2.1,6-3.8c1.5-6.6,1.2-67,0.3-77
						c-0.3-3.1-2.7-5.1-5.7-5.6l-0.1-0.9C113.5,5.9,150.9,5.9,155,5.9z M256.8,72.6c0.4-19-13.5-24-28-24.8c-0.3,0-0.2-0.7,0-0.8
						c4.7-0.2,23.3-2.3,22.5-20.1c-0.8-17.3-13.9-17.7-18.7-17.8c-3.9-0.1-4.8-0.1-6.4,0c-2.8,0.1-3.5,0.3-3.5,3.4
						c0,0.4-0.6,31.2-1,52.9c-0.2,11.8-0.2,20.9-0.2,20.9c0.1,2.2-0.2,4.3,5.1,4.6c5.5,0.3,12.6,0.5,17.5-0.6
						C248.8,89.3,256.5,86,256.8,72.6z M251.1,47.1c21.6,5.4,22.9,21,22.6,25.4c-1,19.6-17.6,21.8-24.3,21.8h-51.1l0.1-1
						c3.7-0.5,6.5-2.5,6.5-9.1l0.3-67.4c0.1-7.3-1.8-9.5-5.9-10l-0.1-0.9h38.6c7.1,0,28.4-1.4,30.2,18.2
						C269.6,39.8,252.4,46.4,251.1,47.1z M334.4,6.2l0.9,0l0.3,15.7l-1,0c-1.6-6.4-7.7-12.5-20.1-13.1c-14.6-0.8-20.9,7.9-21,16.2
						c-0.1,10.9,8.4,13.2,21.1,16.3c6,1.5,28,4.3,26.3,29.1c-1.2,17.3-16.2,25.6-37.3,24.9c0,0-8.8-0.3-21.1-3.7
						c-2.3-0.6-2.9,0.1-3.8,1.8l-1,0.1l0-17l1,0c0.5,1.7,0.6,4.9,3.7,7.6c2.3,2,7.6,6.9,19.3,7.1c11.5,0.2,21-4.7,22.3-17.6
						c0.3-3.5,0-11.4-7.8-15c-6.1-2.8-22.9-4.7-31-11.8c0,0-9.7-6.7-8.1-19.3C279.2,9.7,294,5.3,307.3,5c0,0,11.9-0.1,21.4,2.3
						c0,0,2.3,0.6,4.2-0.1C333.8,7,334.1,6.5,334.4,6.2L334.4,6.2z"/>
				</g>
				<path id="Treasures" class="st3" d="M710.5,46.7c0.6,0.3,0.6,0.8,1.1,1c0.1,0.2,0.1,0.5,0.1,0.6c0.9,0.8,2,0.4,3,0.8l1.7,0.6
					c0.8,0.3,1.9,1.7,2.9,1.6c1,1.4,1.6,0.5,1.6,1.6c0,0.4-0.7,1.6-0.7,2c0,0.4,0.1,0.4-0.1,0.5c-0.5,0.5-0.7,1.2-1.3,1.7
					c-1.3,1.2-3.1,2.4-4.7,3.4c-0.2,0.1-0.5,0.1-0.6,0c-0.1,0.1-0.3,0.4-0.4,0.6c-0.5,0.5-1.3,0.9-2,1.3c0,0.1,0,0.3-0.1,0.5
					c-1.7,0.8-1.7,2.6-2.1,3.7c-0.3,0.7,0,1.6-0.4,2.3c0,0.1,0.2,0.3,0,1.5c0.6,1.7,0.4,1.2,2.2,2.6c0.4,0.3,0.7,1.1,1,1.5
					c0.9,1,2,2.2,3,3.5c0.7,0.9,1.7,2.8,2.1,3.7c0.1-0.2,0.1-0.4,0.1-0.5v0.9c0-0.1-0.1-0.2-0.1-0.4c-0.5,1.4-2.3,4.7-2.6,4.9
					c-1.9,1.4-4.5,2.6-6.6,3.9l-1.4-0.1c0.3-0.6,0.7-1.1,0.9-1.6c0.1-0.3,1.1-0.5,1.5-0.9c-0.2-0.2-0.2-0.4-0.7-0.4
					c-0.6,0-0.9,0.3-1.6,0.8c-1.6,1-4.2,2.7-5.9,2.5c-0.3,0.1-1,0.5-1.4,0.5h-2.4c-0.4,0-1,0.4-1.6,0.5c-1.6,0.1-1.7,0.2-2.2,0.2
					c-0.4,0-1.6-0.6-2-0.6c-0.4,0-0.4,0.3-0.9,0.3c-0.5,0-0.3-0.3-0.7-0.3c-0.5,0-0.4,0.5-0.8,0.5c-0.4,0-0.6-0.1-1.1-0.3
					c1.7-0.6,3.6-1.3,5-2.3c1.7-1.1,3.1-2.7,4.6-3.8c4.2-3.4,8.8-2.5,10.6-6c0-0.1-0.3-0.2-0.4-0.4c-0.1,0-0.4,0.5-0.8,0.5
					c-0.5,0-0.5-0.1-0.8-0.2c0.2-0.8,0.3-1.1,0.3-1.5c0-1.7-1.6-1.2-1.6-2.2c0-0.4-1-1.1-1.3-1.7c-1.1-2.1-1.9-1.7-2.6-3.9
					c-0.1-0.2-0.3-0.7-0.7-0.7c-0.4,0-0.3,0.2-0.4,0.4c-0.5,0.1-1.3,0.3-1.7,0.4c-1,0.3-2,0.8-3,1.2c0,0-16,5.4-17.9,5.4
					c-0.4,0-0.6-0.2-2.2-0.2c-0.7-0.1-1.6-0.1-2.5-0.2c-0.2-0.1-0.4-0.3-0.5-0.4c-1.7,0.5-5-1.6-5.8-2.7l-0.3-0.7
					c-0.1,0-0.5-0.1-0.8-0.3c-2.9,1.6-7.2,2.6-10.8,3c-1.1,0.1-2.7,0.4-3.2,0.4s-1.2-0.2-1.9-0.2c-1.8-1.3-2.1-3.3-3.4-4.5
					c-0.2-0.2-0.4-0.7-0.4-1.1c0-0.8,1-0.7,1.4-3c0.1-0.5,1.1-1.2,1.8-1.7c0.3,0.6,0.1,1.2,0.1,2.6h1.2c0.1,0.3-0.2,0.5-0.3,0.6
					c0.3,0.2,0.7,0.2,1.1,0.2c1.5,0,3.6-0.5,4.9-1.2c0.1,0.3,0.3,0.6,0.2,0.7c0.6,0.1,0.7-0.1,1.1-0.6c1.4-0.7,3.9-0.6,5.2-1.8
					c2.1,0.1,1.3-2.6,1.8-3.5c0.3-0.4,0.8-0.5,1.1-1c0.1-0.1,0-0.4,0.1-0.8c0.2-0.1,0.3-0.2,0.4-0.3c0.1-0.1,0.1-0.2,0-0.4
					c1.1-1.5,2-3.1,3.5-4.5c1-1,5.4-3.8,6-3.8c0.4,0,0.9,0.3,1.3,0.3c0.4,0,0.2,0.4,0.3,0.5c0.1,0,0.4-0.3,0.8-0.3
					c0.4,0,0.9,0.3,1.3,0.4c0.1,1,1.7,1.2,2.6,1.5c1.2,0.4,2.5,0.3,3.7,0.6c0.8,0.3,1.4,1.1,2.1,1.5c0.3,0.3,0.3,0.5,0.3,0.9
					c0,0.4-0.2,1.2-0.2,1.6c0,0.4-0.7,0.5-0.8,0.9c-0.2,0.4-0.2,1.1-0.5,1.6c-0.6,0.2-1.6,0.3-1.5,1.4c-0.1,0.2-0.5,0.3-0.6,0.2
					c-0.8,1.5-4,3-5.5,3.9c-1.9,1.1-3.7,2-5.5,3.3c0.5,0.2,0.9,0.1,1.4,0.3c6.1-0.2,6.3,0,6.4,0c2.6-0.8,10-3.3,13.4-5.9
					c0.3-0.1,0.9,0,1.2-0.1c0.9-0.2,1.8-0.6,2.6-0.9c1.1-0.5,2.3-1.1,3.5-1.9c1.5-1,1.1-2.7,1.7-4c0.9-1.9,2.4-3.9,3-5.8
					c0.2-0.6,0-1.2,0.1-1.9c0.4-0.5,1.8-0.4,1-1.4c0.3-0.1,0.5,0,0.6,0c0.1-0.1,0.1-0.6,0.4-0.8c0.6,0.2,0.9,0.6,1.3,0.9
					C709,48,709.6,47.2,710.5,46.7z M676.5,56.9c-1.4,1.2-3.1,2-4.1,2.9c-1.5,1.5-2.6,3.2-3.8,5.1c3-0.9,8.4-3.1,9.6-6.4
					C677.7,58.1,677.1,57.3,676.5,56.9z M477.7,46.7c1.3,1.3,1.4,1.6,2.7,2c1,0.3,2,0.8,3.1,1.1c1.9,0.5,4.6,0.1,6.6,1.1
					c0.8,0.3,1.5,1.3,2.2,2.1c-0.5,0.9-0.5,2.6-0.5,3.4c0,1.6-1.1,2.2-2.5,3.9c-0.9,1.1-2.8,2.5-4,3.6l-1.4,1.4
					c-0.4,0.1-1.1,0.4-1.2,0.6c-4.5,2.6-10.6,6.2-15.8,7.1c-0.1,0.4-0.3,0.9-0.3,1.3c0,2.3,6,2.8,6.5,2.8h5.5c0.4,0,2.3-0.3,3.7-0.3
					c-0.6,0.3-0.4,1.2-1,1.3l-1.3,0.9c0.2,0-2.5,0.3-2,0.4c-0.8,0.4-2.3,0.5-2.9,0.6c-0.1,0.1-0.3,0.4-0.8,0.4
					c-0.4,0-0.2-0.3-0.6-0.3c-0.4,0-0.4,0.3-0.9,0.3c-0.4,0-0.5-0.2-0.6-0.3c-0.6,0.1-1.6,0.3-2.3,0.1c-3-0.8-6.7-1.4-8.2-4.3
					c-0.2-0.4-0.4-0.7-0.7-1c-2.2,0.6-4.4,0.9-6.7,1.6c-1.2,0.3-2.4,0.6-3.7,0.6c-3.7,0.2-6.4-0.4-8.8-2.1c-0.9-0.6-1.8-1.7-2.5-2.8
					h1.1c0,0.4,0.3,0.7,0.8,0.7h3.4c0.4,0,2.8-0.9,4.2-1.2c0.7-0.1,1.4,0.1,2.1-0.1c2.5-0.6,5.1-1.1,7.7-1.9c0.9-0.3,1.7-0.5,2.5-1
					c0.4-1.2,1.1-2.4,1.9-3.7c0.3,0.2,0.5,0.2,0.5,0.3c0.3-0.7,1.2-2.5,1.7-3.3c0.6-0.7,0.9-1.5,1.1-2.5c0-0.2,0.6-0.3,0.8-0.7
					c0.5-0.9,0.7-2.1,1.3-3c1.1-1.5,4.5-4,5.1-6.8C475.4,49.6,476.9,48.3,477.7,46.7z M480.6,55.8c-1.2,1.2-2.3,2.5-3.9,3.1
					c-3.1,1.3-4.3,5.2-7,7.1c2.7-0.4,3.8-1.5,5.7-2.3c0.6-0.2,1.2-0.2,1.8-0.5c2.3-2.1,4.3-2.9,5.4-5.6
					C481.9,57.1,481.3,56.4,480.6,55.8z M557.1,44c0.4,0,0.9,0.4,1,0.6c1.1,0.1,2.4,1.6,3.2,1.7c1,0.1,2.2,0.6,3.5,0.8
					c1.1,0.2,2.7,0.1,3.5,1.4c0.1,0.2,0.3,0.2,0.3,0.6c0,0.4-1.6,1.8-2.5,2.6c-0.3,0.3-1,0.3-1.2,0.6c-2.8,3.2-5.3,5.4-9.2,8.4
					c-1.6,1.2-3.8,3-5.6,4.5c0.3,0.5,3.8,0.9,4.8,0.9c0.4,0,1.3-0.5,1.7-0.5c0.4,0,1.5,0,2.1,0.4c0.3,0.1,0.5,0.9,0.8,1
					c1.8,0.6,4.2,0.4,5.4,2.2c1.2-1,3.2-1.5,4.4-3.4c1.5-1,3.3-1.4,4.5-2.5c2.6-2.2,3-4.4,5-6.7c0-0.1,0-0.4,0.1-0.7
					c1.6-0.7,0.8-2.4,1.7-3.4c0.6,0.8,2.1-0.1,2.2,0.8c0.2-0.2,0.6-0.5,1.3-0.6c0.1,0.4,0.2,1,0,1.3c0.1,0.1,0.3,0.1,0.4,0.2
					c0-0.1,0.2-0.4,0.5-0.6c1,0.6,1.8,0.9,2.7,1.5c1.7,0.5,4.2,0.1,6,1.7c-0.2,0.4-0.2,0.8-0.3,1.4c-0.4,0.2-0.6,0.3-0.8,0.5
					c0.1,0.1,0.2,0,0.3-0.1c0.3,0.2,0.5,0.6,0.5,0.9c-0.5,0.1-0.9-0.1-1.2,0.1c-0.9,0.5-1.9,0.9-2.6,1.4c-2.7,1.8-6.7,5.5-8.3,8.5
					c0.1,0.1,0,0,0.5,0c1.3,0,2.5-0.7,3.5-1.2c0.1,0.4-0.3,0.6-0.3,0.7c0.7,0.1,1.9-0.8,2.8-1.3c0.6-0.3,1.6-0.3,2.2-0.7
					c2.4-1.4,5.2-3.4,7.8-4.9c0.5-0.7,1.7-1.3,2.2-2.1c0.7-1.2,1.2-2.8,3.1-3c0.3-0.3,1-1.2,1.7-1.2l0.5,0.5
					c1.9,1.9,4.5,0.9,6.6,1.6c0,0.2,0.2,0.3,0.2,0.7c0,1-1.2,2.3-1.2,3.2c0,0-8,8.5-8,10.7c2.3-0.2,5.6-2,7.8-3.7
					c0.2,0,0.6-0.2,0.8-0.1c1.2-1,2.6-2.1,4.2-3.4c0.2,0,0.4,0,0.6,0c0.6-0.5,1-1.1,1.9-1.9c0.2-0.1,0.5,0.1,0.7,0.1
					c0.9-0.7,1.9-1.6,2.5-2.6c0.3-0.2,0.7-0.4,1.1-0.4c0.4,0,0.1,0.2,0.2,0.3c0.2-0.3,0.3-0.8,0.6-1.2c0.7-0.9,3.1-1.1,3.1-2.9
					c0.5,0.1,2.1,0.1,1.8-1.1c0.3-0.1,0.1-0.2,0.5-0.2c0.4,0,0.8,0.3,1.1,0.4c0.5,0.4,2.2,1.8,3.3,1.5c0.6,0.2,1.3,0.4,2,0.6
					c0,0.2,0.2,0.2,0.2,0.6c0,0.5-1.3,0.5-0.9,2.7c0,0,0,0.2-0.5,0.2c-0.4,0-0.4-0.3-0.5-0.3c-0.4,0.5-1,0.6-0.9,1.3
					c0-0.1,0.2-0.5,0.8-0.6c-0.4,0.5-1.2,1.2-1.2,1.6c0,0.4,0.4-0.1,0.4,0.2c0,0.4-0.4,0.6-0.3,1c0.2-0.1,0.6-0.3,0.6-0.6
					c0-0.4-0.4-0.5-0.3-0.8c0.5,0.2,0.6,0.3,1.1,0.3c0.4,0,0.5-0.4,0.7-0.6c0.8-0.2,1.4-1,1.6-2.1c0,0,0.4,0,0.4,0.1
					c0.2-0.2,0.5-0.3,0.4-0.7c0.3,0,0.6,0,0.7,0.1c0-0.1,0.2-0.3,0.5-0.4c0-0.1-0.1-0.7,0.5-0.6c0.1,0.3,0,0.5,0.1,0.7
					c1.1-0.8,2-2.2,3.2-2.9c0.9-0.6,2.7-1.2,3-2.1c0.3,0.2,0.1,0.1,0.5,0.1c0.4,0,1.4-1.1,2.5-1.7c0.3,0.2,0.2,0.5,0.6,0.5
					c0.4,0,1.1-0.7,1.8-0.9c0.3-0.1,0.7,0.2,1,0.1c0.4-0.2,1-0.7,1.4-0.7c0.4,0-0.2,0.3,0.3,0.3s0.4-0.5,0.9-0.5
					c1.4,0,3.3,1.4,3.3,2.3c0,1.5-2.9,3.1-3.9,3.9c0.1-0.7,0.5-1.1,0.6-1.5c-0.7,0-1.4,0.3-1.8,0.3c-0.5,0.4-1,1.3-1.6,0.9
					c-0.7,1.8-2.9,2.7-4.2,4c-2,1.9-4.8,3.7-6.7,5.6c-1.2,1.1-2.1,2.3-3.2,3.5c-1.3,1.3-2.6,2.9-4,4.3c-0.2,0.1-0.6,0.1-0.7,0.1
					c-1.4,1.1-2.3,2.2-3.3,3.2c-0.3,0.3-1.3,0.2-1.9,0.6c-0.3,0.2-0.5,0.6-0.8,0.9c-0.7,0.1-1.8,0.6-2.3,0.6c-1.8,0-3.6-2.1-4.1-2.7
					c-0.3-0.5-1-1-1-1.4c0,0,0.8-1,1-1.8c0.1-0.5-0.1-1,0.1-1.5c0.8-1.8,1.3-3.4,1.7-4.7c0.5-1.5,1.7-3,2.2-4.3
					c-0.1-0.1-0.2,0.1-0.6,0.1c-0.4,0-3.2,2.1-4.7,3.3c-0.2,0.2-0.5,0.6-0.9,1c-0.1,0.1-0.5,0-0.8,0.3c-4,3.6-6.9,6.7-11.9,9.2
					c-1.1,0.5-3.2,0.7-3.7,0.7c-2.4,0-4.5-3.8-4.6-4c-0.1-0.3,0.1-0.5,0.1-0.9c0-0.4-0.3-0.9-0.3-1.3c0-0.4,0.2-1.2,0.3-2.5
					c-0.1-0.1,0.1-0.2-0.3-0.2c-0.4,0-1.2,0.5-1.8,0.6c-0.5,0.8-1.4,0.7-1.9,1.1c-0.6,0.5-1.8,1.3-2.3,1.3c-0.1,0.2-0.5,0.4-0.9,0.8
					c-0.2,0.1-0.4-0.1-0.5-0.1c-1,1.3-3.9,2-5.5,2.5c-0.3,0.1-0.7,0.6-1,0.6c-0.8,0.2-2.4,0.3-2.9,0.3c-0.9,0-3.2-0.5-3.7-1
					c-1.5-1.6-3.1-4.1-3.1-6c0-0.4,0.5-2.9,0.5-3.3c0-0.7-0.5-0.5-0.7-0.5c-0.4,0-1.9,0.8-2.8,1.2c-1.1,0.5-2.8,1.2-4.3,2.3
					c-0.2,0.1-0.3,1-0.3,1.4c-0.1,1-0.7,2-1.3,2.8c-0.5,0.7-1.9,1.2-3,1.9c-0.3,0.2-0.4,0.5-0.7,0.7c-0.6,0.5-1.7,0.6-2.5,0.9
					c-1.4,0.6-2.9,1.8-4.2,2.7c-0.1,0.1-0.5-0.1-0.6-0.1c-2.5,2-5,2.2-7.8,3.9c-0.5-0.5-0.6-1.2-0.6-1.5v-1.3c0-0.4,0.8-0.3,1-0.4
					c0.1-0.6,0.1-1.4,0.8-1.9c0.1-0.1,0.6,0,0.8-0.2c0.7-0.5,1.4-1,2-1.8c2-1.2,4.7-3.9,6-5.5c-1.3-0.1-2.8-0.2-4-0.3
					c-0.9-0.1-2-0.3-3-0.6c-0.9-0.3-2.4-1.4-2.8-1.4c-0.8,0-3.9,2.5-5.2,3.4c-0.8,0.5-1.9,0.9-3.2,1.2c-0.1,0.1-0.1,0.3-0.3,0.4
					c-1.6,0.7-3.3,1.5-5,2.1c-0.2,0.1-0.3,0.5-0.7,0.7c-2.2,0.9-6.8,2.1-7.3,2.1h-3.8c-0.4,0-1.6-0.5-2.2-0.9c-1-0.6-2.3-1.8-3-3
					c-0.5-0.8-0.6-2.1-0.9-3.1h-0.6c-1.2,1.1-3,2.5-4.6,3.5c-0.6,0.4-1.1,1-1.6,1.3c-1,0.6-2.4,0.8-3.5,1.2c-0.4,0.2-0.8,0.5-1,0.8
					c-0.6,0.1-1.3,0.1-1.8,0.1c-0.2,0-0.1,0.3-0.5,0.3h-2.6c-0.4,0-1.8-1.2-2.1-1.4c-0.8-0.5-2.6-2.7-2.6-2.9c0-0.4,0.3-0.2,0.3-0.6
					s-0.6-1.5-0.8-2.1c-0.1-0.5-0.1-1.1-0.2-1.8l0.4-0.2c0.1-0.6,0.3-1.2,0.5-1.8c0.1-0.2,0.3-0.2,0.4-0.3c0.7-1.6,1.5-3,2.2-4.4
					c0.4-0.1,0.7-0.4,0.9-0.5c0-0.1,0-0.4,0.1-0.6c1-1,2-2,2.8-2.8c0.6-0.7,1.5-1,2.1-1.5c1.5-1.2,3.1-2.8,4.8-4.3
					c0.2-0.1,0.3-0.1,0.5-0.1c1.6-1.3,3.1-2.4,4.4-3.7c0.6-0.3,3.5-2.1,4.4-2.1c0.4,0,0.9,0.3,1.5,0.4c0.2,0.3,0.4,0.6,0.5,0.8
					c0.8-0.2,2.9,1,3.5,1.3c0.8,0.4,2.4,0.9,3.2,0.9c1,0,2.3,0.2,3.3,0.3c0.3,0.3,0.6,0.7,1.2,1c0.1,0.4-0.4,1-0.6,1.3
					c-0.1,0.1-0.4,0-0.7,0.3c0.2,1.2-1,0.7-2,2.3c0.1,0.1,0.4-0.1,1.7-0.1c0.1,0.3,0.2,0.2,0.2,0.6c0,0.4-0.2,1.2-0.4,1.5
					c0.1,0.1,0.4,0,0.7,0.1v0.6c0,0.4-2,2.7-2.7,3.9c-0.6,1-1.3,2.4-1.8,3.4c-0.3,0.5-3.4,5.2-3.4,6.7c0,0.4,0.1,0.4,0.4,0.7
					c5.2-0.1,6.6-0.9,9.3-2.3c1.4-0.3,3.3-0.6,4.3-1.9c0.2,0,0.5,0,0.7-0.1c2.6-1.8,5.1-3.4,7.4-5.1v-3.1c0.8-0.7,0.5-1.9,0.9-2.6
					c0.5-1.2,1.4-2.6,2.3-4c0.2-0.1,0.3,0,0.4-0.1c2.1-2.9,6.4-6.5,8.2-8c0.2-0.2,0.7-0.4,1-0.5c0.1-0.1,1.1-1,1.6-1.2
					C556.2,44.8,556.5,44.4,557.1,44z M515.2,59.3c-5.6,1.2-12.8,5.3-13.7,11c5.6-2.7,10.7-5.9,15.3-10.9L515.2,59.3z M458.2,43.1
					c0.7,0,2.2,1.3,2.7,1.5c0.8,0.3,2,0.4,2.7,0.7c0.3,0.1,0.9,0.7,0.9,1c0,0.4-0.5,0.8-0.7,1c-0.2,0.3-0.1,0.8-0.3,1.2
					c-0.1,0.3-0.8,0.6-1.1,0.6c-0.5,0.7-1.1,1.1-1.7,1.3c-0.1,0.1,0.1,0.6-0.2,0.7c-2.7,1.6-4.1,4.8-6.6,5c0.5-1,1.2-1.9,2-2.7
					c0.1-0.1,0.1-0.4,0.1-0.6c0.8-0.6,1.7-2.5,2-3.7c-0.7,0-1.9,0.4-2.7,0.5c-0.2,0.1-0.5,0.5-0.7,0.7c-0.2,0.1-0.9,0.2-1.4,0.3
					c-2.6,1.9-5.7,3.3-7.8,5.4c-1.1,1.1-2.9,1.8-4.1,2.9c-1.9,1.7-3.7,3.4-5.5,5.3c-1.1,1.2-2.3,2.7-3.3,3.9
					c-0.4,0.5-1.2,0.6-1.5,0.9c-1.1,1.4-2.3,3.5-3.6,5.1c-2.4,2.6-4.3,5.4-6.3,9c-0.5,0-1.2-0.3-1.9-0.4c0-0.1-3.4-2.9-3.4-3.7
					c0-0.4,0.4-0.4,0.5-0.5c0-0.1-0.3-0.1-0.6-0.3c-0.1-0.6-0.4-1.3-0.4-1.7c0-0.4,0.4-1,0.6-1.2c0.8-0.8,1.7-1.5,2.5-2.2
					c2.9-2.5,5.1-6.1,6.7-8.9c0.4-0.7,0-1.8,0.5-2.5c0.8-1.2,1-2.2,1.4-3.3c0.1-0.2,0.5-0.5,0.6-0.6c0.2-0.3,0.2-0.7,0.2-1.3
					c0.8-0.2,1.5,0,1.9,0.1l0.4-0.8c0.6,0.1,1.3,0.6,1.8,0.6c0.9,0,3.4-3.1,4.8-4c2.4-1.6,5.1-3.3,7.5-4.7c1.9-1.1,4.1-2.1,6.3-2.8
					C453,44,455.6,43.1,458.2,43.1z M454.5,0c0.5,0,1.1,0.1,1.7,0.2c0.2,0.1,0.6,0.4,0.8,0.5c1.8,0.5,3.7,1,5.4,1.6
					c1.4,0.5,2.9,1.5,4.5,2.2c1,0.4,2.4,0.7,3.6,1.4c0.6,0.3,1.8,1.1,2.8,1.7c0.7,0.4,1.3,1.7,1,2.4c0,0.1,0.2,0.2,0.4,0.4v0.6H474
					c-0.1,0.1-0.1,0.2,0.1,0.6c-0.2,0.2-0.4,0.1-0.8,0.1s-1.6,0.8-2,0.8c-0.5,0-1-0.4-1.5-0.4c-0.5,0-1.4,0.5-2.2,0.9
					c-0.9,0.1-2.3-0.6-3,0.3c-2.8,0.1-5.5,0.5-8.2,0.5c0,0-0.1,0.1-0.4,0.2c-0.9,0-2.1-0.1-3.2,0c-1.6,0.1-3.6-0.3-5.2,0.5
					c-0.9,0.4-2.6,1.6-3.5,2.4c-1.1,1-3.1,2.3-4.2,3.7c-0.7,0.9-2.2,1.5-3.2,2.4c-1,0.9-2,2.2-3.1,3.2c-5.2,5.1-11.5,12.2-15.9,17.2
					c-2.7,3-5.2,6.7-7.5,9.4c-1,1.1-2,2.6-3.2,3.8c0,0.1,0,0.4-0.1,0.6c-0.3,0.3-0.8,0.5-1,0.7c-0.9,1.3-1.9,3.1-2.9,4.7
					c-1.1-0.1-1.3,0.7-1.8,1.3c-0.3,0.4-1.2,0.6-1.5,1c-0.8,1.2-0.8,2.8-2.2,3.8c0,0.4,0,0.9-0.1,1.4c-0.5,0.4-1.2,0.6-1.4,1
					c-0.1,0.2,0,0.7-0.3,1.1c-1,1.5-1.6,3.1-2.6,4.6c0,0.1,0.1,0.1,0.1,0.4c0,0.4-0.4,0.3-0.5,0.4c-0.4,1-1,1.9-1.3,2.9
					c-0.4,1.5-1.4,3.7-2,5.2c-1,2.4-1.5,5.2-2.3,7.5c-0.1,0.2-0.3,0.4-0.4,0.5c0,0.4-0.2,0.9-0.4,1.5c-0.2,0.8-0.2,1.8-0.5,2.7
					c-0.2,0.1-0.3,0.1-0.4,0.1c0.2,0.3,0.4,1.2,0.4,1.5c0,0.3-0.5,1.4-0.5,1.7v2.5c0,0.4-0.8,1.5-0.9,2.3c-0.3,2.1-0.2,2.4-0.2,2.7
					c0,0.3-0.4,0.5-0.4,0.6c0.2,3.4,0.2,4.1,0.2,4.4c0,0.3,0.5,0.6,0.5,0.9c0,0.3-0.2,0.4-0.2,0.7c-0.3,0-0.8-0.2-1-0.3
					c0-0.5-0.2-0.7-0.3-1.2c-0.3-1-1-2-1.2-2.9c-0.2-1-0.4-2.1-0.6-3l0.4-0.3c-0.7-0.9-0.7-1.9-0.7-2.9c0-2.8,0-3.2,0-3.6
					c0-0.4-0.5-0.7-0.5-1.1c0-0.3,0.5-0.3,0.5-0.7c0-0.4-0.4-0.3-0.4-0.6c0-0.9,0.2-0.2,0.4-3.2c0-0.6,0.5-1.3,0.5-1.7v-1.8
					c0-0.3,0.7-2.1,0.8-3.1c0.3-1.5,0.6-3.3,1-4.8c0.1-0.3,0.7-0.5,0.8-0.8c0.4-1.2,0.8-2.5,1.1-3.8c0.1-0.2,0.3-0.4,0.4-0.5
					c1-2.4,1.7-4.7,2.8-7.1c-0.1-0.7,0.2-0.8,0.4-1.1c0.6-1.2,1.3-2.7,2.2-4.1c0.2,0,0.3-0.2,0.4-0.2c-0.2-1,1.3-1.9,1.8-3.1
					c0.8-1.7,1.1-3.4,2-5c0.9-1.9,2.2-3.9,3.4-5.8c0.6-0.9,1.9-1.8,2.7-2.7c0.1-0.1,0-0.4,0.1-0.7c0.9-1.3,1.7-2.3,2.6-3.8
					c0.3-0.5,0.4-1.2,0.6-1.6c0.1-0.3,0.8-0.6,1.2-0.9c0.4-0.3,0.4-0.8,0.6-1.2c0.3-0.4,0.9-0.7,1.4-1.1c0.2-0.3,0.2-0.7,0.5-1.1
					c0.3-0.5,0.9-0.8,1.2-1.3c0.1-0.2-0.1-0.6,0.1-0.8c0.6-0.8,1.9-1,1.9-1.5c0-0.3,0.7-0.3,0.7-0.2c0.1-0.1-0.2,0-0.2-0.4
					c0-0.3,0.4-0.6,0.4-0.9c0.1-0.7,0.5-1.5,1.1-2c0.7-0.6,1.9-1.1,2.6-1.8c0.2-0.2-0.1-0.5-0.1-0.8c0.1-0.6,0.9-0.9,1.5-1.5
					c0.3-0.2,0.1-0.7,0.4-1c0.3-0.2,0.8-0.4,1.1-0.8c1.3-1.7,2.8-3.4,4.5-5.2c0.1-0.2,0.6-0.2,0.9-0.3c0.2-0.1,0.1-0.2,0-0.6
					c0.7-0.5,0.9-1.1,1.7-1.4c0.3-0.6,0.4-1.3,0.9-1.6c0.6-0.4,1.4-0.7,2.1-1.1c1,0.4,2-0.5,2-1.2c0-1.7-4.9-1.6-5.4-1.6
					c-0.2-0.1-0.1-0.4-0.6-0.4c-0.4,0-0.9,0.3-1.4,0.3c-0.5,0-3.8-0.7-4.3-0.7h-2.9c-0.5,0-0.6-0.5-1-0.5c-0.5,0-0.3,0.3-0.7,0.3
					c-0.4,0-0.8-0.1-1.3-0.2c-0.1-0.3-0.2-0.5-0.3-0.7c-0.1,0-0.3,0.2-0.4,0.6c-0.7-0.1-1.4-0.1-2.2-0.2c-0.2-0.1-0.2-0.2-0.4-0.3
					c-1.1,0.1-2.8,0-4.2-0.2c-0.6-0.1-1.3-0.5-1.8-0.5c-0.4,0-0.5,0.3-1,0.3c-0.4,0-1-0.4-1.3-0.4c-1.3-0.1-2.9-0.1-4.2-0.3
					c-1.5-0.2-3.1-0.3-4.8-0.4c-0.4,0-0.9,0.1-2.8,0c0,0-0.2-0.1-0.3-0.2c-2.3,0.4-3.9-0.5-4.6-0.5c-0.5,0-2.4,0.6-2.8,0.6
					c-0.5,0-1.3-0.3-1.7-0.3c-0.5,0-1.3,0.1-2,0.2c-1.2,0.3-2.9,0-4.2,0.2c-0.5,0.1-0.6,0.4-1,0.4c-0.5,0-1.4-0.1-2.1-0.4
					c-0.3,0.1-0.3,0.4-0.7,0.5c-2.4,0.2-5,0.5-7.3,0.5c-0.4,0.3-0.9,0.7-1.3,0.8c-1.1,0.1-2.4,0.5-3.6,0.7c-0.1,0.3-1,0.5-1.4,0.7
					c-0.6,0.2-2.6,0.7-2.6,1.7c0,1.8,3.3,3.9,4.6,4.5c1,0.5,2.2,1.2,3.3,1.6c2.4,0.7,5.1,2.2,6.6,4c1.4,1.7,2.5,3.5,3.7,5.4v0.7h-1
					c-0.2-0.3-0.4-0.6-0.5-1c-0.4-0.2-0.8-0.5-1.4-0.9c-0.1-0.1-0.1-0.4-0.1-0.5c-3.4-1.8-6.8-4-10.5-5.6c-0.3-0.1-0.5-0.4-0.9-0.6
					c-1-0.3-3.4-0.8-3.7-1.6c-3.9-0.6-7-4.1-7-7c0-2.2,3.5-5.9,4.5-6.3c0.4-0.3,0.9-0.6,1.7-0.8c0.1,0.3,1,0.1,1.5-0.6
					c0,0,1.2,0.3,1.6,0.3c0.5,0,1.3-0.6,1.9-0.8c0.3-0.1,2.3-0.4,2.6-0.7c0-0.7,3.6-0.2,3.8-1.3c2.8,0.2,2.8-0.6,3.2-0.6
					c0.4,0,1.3,0.4,1.8,0.4c0.5,0,0.5-0.4,1-0.4c0.5,0,0.6,0.4,1,0.4c0.5,0,2.1-0.3,3.1-0.4c0.3,0.2,0.3,0.1,1.8,0
					c0.2,0,0.5,0.2,0.8,0.4c0.1,0,0.2-0.3,0.4-0.4h11.4c1.4,0,6.2,0.6,7.4,0.5c1.8,0.4,3.4,0.3,5.1,0.6c0.1,0.2,0.1,0.3,0.2,0.3
					c0.3-0.1,0.8-0.1,1.2-0.4c0.4,0,0.6,0.4,1,0.5c2.3,0.3,4.8,0.3,7.1,0.6c0.8,0.1,2,0.5,2.5,0.5c0.4,0,0.3-0.3,0.7-0.3
					c0.5,0,0.6,0.3,0.7,0.4c0.9,0.1,2,0.2,2.9,0.2c2.7,0.2,5.3,0.5,7.7,0.7c2.2,0.2,4.3,0.3,6.6,0.5c4.9,0.3,5.3-0.1,5.8-0.1
					c0,0,0.3,0.3,0.2,0.5c-0.3,0-0.2-0.1-0.7-0.1c-0.5,0-0.4,0-0.6,0.4c0.1,0.1,0.1,0,0.6,0c0.6,0,1,0.1,0.8-0.9
					c0.4-0.1,0.5,0.1,0.5,0.2c1.5-1.4,2.9-2.7,4.7-3.7c0.4-0.2,1.3-0.2,1.8-0.4c0.6-0.2,1-0.7,1.4-1c0.6-0.4,1.8-0.7,3-1.3
					C452.6,1.3,453.8,0,454.5,0L454.5,0z"/>
			</g>
		</g>
	</g>
</g>
</svg>
